<?xml version="1.0" encoding="utf-8"?>
<!-- Svg Vector Icons : http://www.onlinewebfonts.com/icon -->
<!DOCTYPE svg PUBLIC "-//W3C//DTD SVG 1.1//EN" "http://www.w3.org/Graphics/SVG/1.1/DTD/svg11.dtd">
<svg version="1.1" xmlns="http://www.w3.org/2000/svg" xmlns:xlink="http://www.w3.org/1999/xlink" x="0px" y="0px" viewBox="0 0 1000 1000" enable-background="new 0 0 1000 1000" xml:space="preserve">
<metadata> Svg Vector Icons : http://www.onlinewebfonts.com/icon </metadata>
<g><path d="M500,84.2c56.2,0,110.6,11,161.8,32.6c49.5,20.9,94,50.9,132.2,89.1c38.2,38.2,68.2,82.7,89.1,132.2c21.7,51.2,32.6,105.7,32.6,161.8c0,56.2-11,110.6-32.6,161.8c-20.9,49.5-50.9,94-89.1,132.2c-38.2,38.2-82.7,68.2-132.2,89.1c-51.2,21.7-105.7,32.6-161.8,32.6c-56.2,0-110.6-11-161.8-32.6c-49.5-20.9-94-50.9-132.2-89.1c-38.2-38.2-68.2-82.7-89.1-132.2C95.2,610.6,84.2,556.2,84.2,500c0-56.2,11-110.6,32.6-161.8c20.9-49.5,50.9-94,89.1-132.2c38.2-38.2,82.7-68.2,132.2-89.1C389.4,95.2,443.8,84.2,500,84.2 M500,10C229.4,10,10,229.4,10,500s219.4,490,490,490c270.6,0,490-219.4,490-490S770.6,10,500,10L500,10z"/><path d="M450.1,332.2v-92.3h99.7v92.3H450.1z M450.1,760.1V383.3h99.7v376.8H450.1z"/></g>
</svg>