<svg width="231" height="61" viewBox="0 0 231 61" fill="none" xmlns="http://www.w3.org/2000/svg">
<path d="M70.558 50V13.271H92.977V17.67H75.699V28.588H91.069V32.881H75.699V45.601H94.302V50H70.558ZM109.369 46.343C114.74 46.343 117.425 44.5057 117.425 40.831C117.425 39.7003 117.178 38.7463 116.683 37.969C116.224 37.1563 115.588 36.4673 114.775 35.902C113.963 35.3013 113.026 34.789 111.966 34.365C110.942 33.941 109.846 33.517 108.68 33.093C107.338 32.6337 106.066 32.1213 104.864 31.556C103.663 30.9553 102.621 30.2663 101.737 29.489C100.854 28.6763 100.147 27.7223 99.6173 26.627C99.1227 25.5317 98.8753 24.2067 98.8753 22.652C98.8753 19.4367 99.9707 16.928 102.161 15.126C104.352 13.324 107.373 12.423 111.224 12.423C113.45 12.423 115.464 12.6703 117.266 13.165C119.104 13.6243 120.446 14.1367 121.294 14.702L119.651 18.889C118.909 18.4297 117.796 17.988 116.312 17.564C114.864 17.1047 113.168 16.875 111.224 16.875C110.235 16.875 109.316 16.981 108.468 17.193C107.62 17.405 106.878 17.723 106.242 18.147C105.606 18.571 105.094 19.1187 104.705 19.79C104.352 20.426 104.175 21.1857 104.175 22.069C104.175 23.0583 104.37 23.8887 104.758 24.56C105.147 25.2313 105.695 25.832 106.401 26.362C107.108 26.8567 107.921 27.316 108.839 27.74C109.793 28.164 110.836 28.588 111.966 29.012C113.556 29.648 115.005 30.284 116.312 30.92C117.655 31.556 118.803 32.3157 119.757 33.199C120.747 34.0823 121.506 35.1423 122.036 36.379C122.566 37.5803 122.831 39.0467 122.831 40.778C122.831 43.9933 121.648 46.4667 119.28 48.198C116.948 49.9293 113.645 50.795 109.369 50.795C107.921 50.795 106.578 50.689 105.341 50.477C104.14 50.3003 103.062 50.0883 102.108 49.841C101.154 49.5583 100.324 49.2757 99.6173 48.993C98.946 48.675 98.416 48.41 98.0273 48.198L99.5643 43.958C100.377 44.4173 101.614 44.9297 103.274 45.495C104.935 46.0603 106.967 46.343 109.369 46.343ZM129.044 13.271H134.185V50H129.044V13.271ZM155.544 13.271H160.685V50H155.544V13.271ZM199.935 31.609C199.935 34.789 199.44 37.5627 198.451 39.93C197.461 42.262 196.066 44.2053 194.264 45.76C192.462 47.2793 190.306 48.4277 187.798 49.205C185.289 49.947 182.533 50.318 179.53 50.318C178.046 50.318 176.403 50.2473 174.601 50.106C172.834 50 171.226 49.7703 169.778 49.417V13.801C171.226 13.4477 172.834 13.218 174.601 13.112C176.403 12.9707 178.046 12.9 179.53 12.9C182.533 12.9 185.289 13.2887 187.798 14.066C190.306 14.808 192.462 15.9563 194.264 17.511C196.066 19.0303 197.461 20.9737 198.451 23.341C199.44 25.673 199.935 28.429 199.935 31.609ZM179.954 45.813C184.83 45.813 188.469 44.5763 190.872 42.103C193.274 39.5943 194.476 36.0963 194.476 31.609C194.476 27.1217 193.274 23.6413 190.872 21.168C188.469 18.6593 184.83 17.405 179.954 17.405C178.505 17.405 177.374 17.4227 176.562 17.458C175.784 17.4933 175.237 17.5287 174.919 17.564V45.654C175.237 45.6893 175.784 45.7247 176.562 45.76C177.374 45.7953 178.505 45.813 179.954 45.813ZM215.525 46.343C220.895 46.343 223.581 44.5057 223.581 40.831C223.581 39.7003 223.333 38.7463 222.839 37.969C222.379 37.1563 221.743 36.4673 220.931 35.902C220.118 35.3013 219.182 34.789 218.122 34.365C217.097 33.941 216.002 33.517 214.836 33.093C213.493 32.6337 212.221 32.1213 211.02 31.556C209.818 30.9553 208.776 30.2663 207.893 29.489C207.009 28.6763 206.303 27.7223 205.773 26.627C205.278 25.5317 205.031 24.2067 205.031 22.652C205.031 19.4367 206.126 16.928 208.317 15.126C210.507 13.324 213.528 12.423 217.38 12.423C219.606 12.423 221.62 12.6703 223.422 13.165C225.259 13.6243 226.602 14.1367 227.45 14.702L225.807 18.889C225.065 18.4297 223.952 17.988 222.468 17.564C221.019 17.1047 219.323 16.875 217.38 16.875C216.39 16.875 215.472 16.981 214.624 17.193C213.776 17.405 213.034 17.723 212.398 18.147C211.762 18.571 211.249 19.1187 210.861 19.79C210.507 20.426 210.331 21.1857 210.331 22.069C210.331 23.0583 210.525 23.8887 210.914 24.56C211.302 25.2313 211.85 25.832 212.557 26.362C213.263 26.8567 214.076 27.316 214.995 27.74C215.949 28.164 216.991 28.588 218.122 29.012C219.712 29.648 221.16 30.284 222.468 30.92C223.81 31.556 224.959 32.3157 225.913 33.199C226.902 34.0823 227.662 35.1423 228.192 36.379C228.722 37.5803 228.987 39.0467 228.987 40.778C228.987 43.9933 227.803 46.4667 225.436 48.198C223.104 49.9293 219.8 50.795 215.525 50.795C214.076 50.795 212.733 50.689 211.497 50.477C210.295 50.3003 209.218 50.0883 208.264 49.841C207.31 49.5583 206.479 49.2757 205.773 48.993C205.101 48.675 204.571 48.41 204.183 48.198L205.72 43.958C206.532 44.4173 207.769 44.9297 209.43 45.495C211.09 46.0603 213.122 46.343 215.525 46.343Z" fill="white"/>
<g clip-path="url(#clip0)">
<path d="M50.2763 14.0682L28.8388 5.16756C28.3018 4.94465 27.6981 4.94454 27.1612 5.16756L5.7237 14.0682C4.90722 14.4072 4.375 15.2044 4.375 16.0884V26.9084C4.375 41.8066 13.3797 55.208 27.1733 60.8381C27.7032 61.0544 28.2967 61.0544 28.8267 60.8381C42.62 55.2082 51.625 41.8068 51.625 26.9084V16.0884C51.625 15.2044 51.0929 14.4072 50.2763 14.0682ZM47.25 26.9084C47.25 39.5734 39.8125 51.2325 28 56.4368C16.5032 51.3715 8.75 39.9166 8.75 26.9084V17.5488L28 9.55634L47.25 17.5488V26.9084ZM25.5822 34.2818L34.9845 24.8796C35.8387 24.0253 37.2237 24.0252 38.078 24.8796C38.9324 25.7339 38.9322 27.1189 38.0779 27.9731L27.1289 38.9221C26.2745 39.7765 24.8895 39.7762 24.0354 38.9221L17.922 32.8087C17.0676 31.9544 17.0676 30.5694 17.922 29.7151C18.7763 28.8609 20.1613 28.8608 21.0155 29.7151L25.5822 34.2818Z" fill="white"/>
</g>
<defs>
<clipPath id="clip0">
<rect width="56" height="56" fill="white" transform="translate(0 5)"/>
</clipPath>
</defs>
</svg>
