<svg width="106" height="27" viewBox="0 0 106 27" fill="none" xmlns="http://www.w3.org/2000/svg">
<path d="M33.064 23V6.368H43.216V8.36H35.392V13.304H42.352V15.248H35.392V21.008H43.816V23H33.064ZM50.6389 21.344C53.0709 21.344 54.2869 20.512 54.2869 18.848C54.2869 18.336 54.1749 17.904 53.9509 17.552C53.7429 17.184 53.4549 16.872 53.0869 16.616C52.7189 16.344 52.2949 16.112 51.8149 15.92C51.3509 15.728 50.8549 15.536 50.3269 15.344C49.7189 15.136 49.1429 14.904 48.5989 14.648C48.0549 14.376 47.5829 14.064 47.1829 13.712C46.7829 13.344 46.4629 12.912 46.2229 12.416C45.9989 11.92 45.8869 11.32 45.8869 10.616C45.8869 9.16 46.3829 8.024 47.3749 7.208C48.3669 6.392 49.7349 5.984 51.4789 5.984C52.4869 5.984 53.3989 6.096 54.2149 6.32C55.0469 6.528 55.6549 6.76 56.0389 7.016L55.2949 8.912C54.9589 8.704 54.4549 8.504 53.7829 8.312C53.1269 8.104 52.3589 8 51.4789 8C51.0309 8 50.6149 8.048 50.2309 8.144C49.8469 8.24 49.5109 8.384 49.2229 8.576C48.9349 8.768 48.7029 9.016 48.5269 9.32C48.3669 9.608 48.2869 9.952 48.2869 10.352C48.2869 10.8 48.3749 11.176 48.5509 11.48C48.7269 11.784 48.9749 12.056 49.2949 12.296C49.6149 12.52 49.9829 12.728 50.3989 12.92C50.8309 13.112 51.3029 13.304 51.8149 13.496C52.5349 13.784 53.1909 14.072 53.7829 14.36C54.3909 14.648 54.9109 14.992 55.3429 15.392C55.7909 15.792 56.1349 16.272 56.3749 16.832C56.6149 17.376 56.7349 18.04 56.7349 18.824C56.7349 20.28 56.1989 21.4 55.1269 22.184C54.0709 22.968 52.5749 23.36 50.6389 23.36C49.9829 23.36 49.3749 23.312 48.8149 23.216C48.2709 23.136 47.7829 23.04 47.3509 22.928C46.9189 22.8 46.5429 22.672 46.2229 22.544C45.9189 22.4 45.6789 22.28 45.5029 22.184L46.1989 20.264C46.5669 20.472 47.1269 20.704 47.8789 20.96C48.6309 21.216 49.5509 21.344 50.6389 21.344ZM59.5484 6.368H61.8764V23H59.5484V6.368ZM71.5484 6.368H73.8764V23H71.5484V6.368ZM91.6497 14.672C91.6497 16.112 91.4257 17.368 90.9777 18.44C90.5297 19.496 89.8977 20.376 89.0817 21.08C88.2657 21.768 87.2897 22.288 86.1537 22.64C85.0177 22.976 83.7697 23.144 82.4097 23.144C81.7377 23.144 80.9937 23.112 80.1777 23.048C79.3777 23 78.6497 22.896 77.9937 22.736V6.608C78.6497 6.448 79.3777 6.344 80.1777 6.296C80.9937 6.232 81.7377 6.2 82.4097 6.2C83.7697 6.2 85.0177 6.376 86.1537 6.728C87.2897 7.064 88.2657 7.584 89.0817 8.288C89.8977 8.976 90.5297 9.856 90.9777 10.928C91.4257 11.984 91.6497 13.232 91.6497 14.672ZM82.6017 21.104C84.8097 21.104 86.4577 20.544 87.5457 19.424C88.6337 18.288 89.1777 16.704 89.1777 14.672C89.1777 12.64 88.6337 11.064 87.5457 9.944C86.4577 8.808 84.8097 8.24 82.6017 8.24C81.9457 8.24 81.4337 8.248 81.0657 8.264C80.7137 8.28 80.4657 8.296 80.3217 8.312V21.032C80.4657 21.048 80.7137 21.064 81.0657 21.08C81.4337 21.096 81.9457 21.104 82.6017 21.104ZM98.7093 21.344C101.141 21.344 102.357 20.512 102.357 18.848C102.357 18.336 102.245 17.904 102.021 17.552C101.813 17.184 101.525 16.872 101.157 16.616C100.789 16.344 100.365 16.112 99.8853 15.92C99.4213 15.728 98.9253 15.536 98.3973 15.344C97.7893 15.136 97.2133 14.904 96.6693 14.648C96.1253 14.376 95.6533 14.064 95.2533 13.712C94.8533 13.344 94.5333 12.912 94.2933 12.416C94.0693 11.92 93.9573 11.32 93.9573 10.616C93.9573 9.16 94.4533 8.024 95.4453 7.208C96.4373 6.392 97.8053 5.984 99.5493 5.984C100.557 5.984 101.469 6.096 102.285 6.32C103.117 6.528 103.725 6.76 104.109 7.016L103.365 8.912C103.029 8.704 102.525 8.504 101.853 8.312C101.197 8.104 100.429 8 99.5493 8C99.1013 8 98.6853 8.048 98.3013 8.144C97.9173 8.24 97.5813 8.384 97.2933 8.576C97.0053 8.768 96.7733 9.016 96.5973 9.32C96.4373 9.608 96.3573 9.952 96.3573 10.352C96.3573 10.8 96.4453 11.176 96.6213 11.48C96.7973 11.784 97.0453 12.056 97.3653 12.296C97.6853 12.52 98.0533 12.728 98.4693 12.92C98.9013 13.112 99.3733 13.304 99.8853 13.496C100.605 13.784 101.261 14.072 101.853 14.36C102.461 14.648 102.981 14.992 103.413 15.392C103.861 15.792 104.205 16.272 104.445 16.832C104.685 17.376 104.805 18.04 104.805 18.824C104.805 20.28 104.269 21.4 103.197 22.184C102.141 22.968 100.645 23.36 98.7093 23.36C98.0533 23.36 97.4453 23.312 96.8853 23.216C96.3413 23.136 95.8533 23.04 95.4213 22.928C94.9893 22.8 94.6133 22.672 94.2933 22.544C93.9893 22.4 93.7493 22.28 93.5732 22.184L94.2693 20.264C94.6373 20.472 95.1973 20.704 95.9492 20.96C96.7013 21.216 97.6213 21.344 98.7093 21.344Z" fill="white"/>
<g clip-path="url(#clip0)">
<path d="M22.9558 7.94438L15.2996 4.87912C15.1078 4.80236 14.8922 4.80232 14.7004 4.87912L7.04418 7.94438C6.75258 8.06115 6.5625 8.33567 6.5625 8.64014V12.3664C6.5625 17.4972 9.77848 22.1125 14.7048 24.0514C14.894 24.1259 15.106 24.1259 15.2952 24.0514C20.2214 22.1125 23.4375 17.4972 23.4375 12.3664V8.64014C23.4375 8.33567 23.2475 8.06115 22.9558 7.94438ZM21.875 12.3664C21.875 16.7281 19.2188 20.7433 15 22.5356C10.894 20.7912 8.125 16.8463 8.125 12.3664V9.14307L15 6.39056L21.875 9.14307V12.3664ZM14.1365 14.9057L17.4945 11.6677C17.7995 11.3735 18.2942 11.3735 18.5993 11.6677C18.9044 11.9619 18.9044 12.4389 18.5993 12.7331L14.6889 16.5038C14.3837 16.798 13.8891 16.7979 13.5841 16.5038L11.4007 14.3984C11.0956 14.1042 11.0956 13.6272 11.4007 13.333C11.7058 13.0388 12.2005 13.0388 12.5055 13.333L14.1365 14.9057Z" fill="white"/>
</g>
<defs>
<clipPath id="clip0">
<rect width="20" height="19.2857" fill="white" transform="translate(5 4.82141)"/>
</clipPath>
</defs>
</svg>
