<?xml version="1.0" encoding="iso-8859-1"?>
<!-- Generator: Adobe Illustrator 19.1.0, SVG Export Plug-In . SVG Version: 6.00 Build 0)  -->
<svg version="1.1" id="Capa_1" xmlns="http://www.w3.org/2000/svg" xmlns:xlink="http://www.w3.org/1999/xlink" x="0px" y="0px"
	 viewBox="0 0 481.6 481.6" style="enable-background:new 0 0 481.6 481.6;" xml:space="preserve">
<g>
	<g>
		<path d="M295.778,197.9l-81.2,81.2l-28.8-28.9c-5.3-5.3-13.8-5.3-19.1,0s-5.3,13.8,0,19.1l38.4,38.4c2.6,2.6,6.1,4,9.5,4
			s6.9-1.3,9.5-4l90.7-90.7c5.3-5.3,5.3-13.8,0-19.1C309.578,192.6,301.078,192.6,295.778,197.9z"/>
		<path d="M449.378,160.2c0-21.4,0-42.7,0-64.1c0-9.7-3.8-21.8-21.7-24.1c-3.8-0.5-7.6-0.9-11.3-1.4c-11.6-1.3-22.5-2.6-33.1-5
			c-41.4-9.1-81.1-27.6-125.1-58.2c-5.9-4.1-10.6-7.4-17.3-7.4c-6.7,0-11.6,3.4-17.2,7.3c-58.8,40.6-112,61.2-167.3,64.6
			c-16.9,1.1-24.2,8.9-24.2,26.1c0,13.9,0,27.8,0,41.7c-0.1,38.5-0.1,78.4,0.3,117.6c0.1,13.8,1.9,28.1,5.2,42.6
			c7.7,33.7,25.4,64.2,54.1,93.1c36.5,36.8,82.3,65.3,140.1,87.1c2.6,1,5.6,1.5,8.7,1.5c3.8,0,7.8-0.8,11.1-2.3
			c3.4-1.5,6.8-2.9,10.2-4.4c14.2-6.1,28.8-12.4,42.9-19.8c46.7-24.7,81.9-53.7,107.7-88.7c22.7-30.8,34.4-61.7,35.9-94.4
			c0.3-6.5,0.5-13.4,0.6-21.1c0-0.1,0-0.3,0-0.4l0.5-65.1c0-0.3,0-0.6,0-0.8v-1.3L449.378,160.2z M422.378,182v0.1v1.8
			c0,0.2,0,0.4,0,0.6l-0.5,63.5v2c0,0.1,0,0.2,0,0.3c-0.1,7.6-0.3,14.3-0.5,20.6c-1.2,27.1-11.2,53.1-30.6,79.5
			c-23.4,31.7-55.6,58.2-98.6,80.9c-13.1,6.9-27.3,13-40.9,18.9c-3.4,1.5-6.8,2.9-10.2,4.4c-0.1,0-0.2,0-0.3,0
			c-53.8-20.4-96.3-46.7-129.8-80.6c-25-25.3-40.4-51.5-46.9-80.2c-2.9-12.6-4.4-25-4.5-36.8c-0.4-39.1-0.3-78.8-0.3-117.3
			c0-13.7,0-27.3,0-41c60-4,117.1-26,179.7-69.2c0.5-0.4,1.2-0.8,1.9-1.3c0.6,0.4,1.3,0.9,1.9,1.3c46.3,32.3,90.4,52.7,134.7,62.5
			c12,2.6,24.1,4,35.8,5.4c3.1,0.4,6.1,0.7,9.1,1.1c0,20.2,0,40.5,0,60.7L422.378,182z"/>
	</g>
</g>
<g>
</g>
<g>
</g>
<g>
</g>
<g>
</g>
<g>
</g>
<g>
</g>
<g>
</g>
<g>
</g>
<g>
</g>
<g>
</g>
<g>
</g>
<g>
</g>
<g>
</g>
<g>
</g>
<g>
</g>
</svg>
